<mxfile host="app.diagrams.net" modified="2021-07-21T06:52:24.335Z" agent="5.0 (Macintosh; Intel Mac OS X 10_15_7) AppleWebKit/537.36 (KHTML, like Gecko) Chrome/91.0.4472.114 Safari/537.36" etag="upbeg9B06aYzv_f94Czr" version="14.9.0" type="github">
  <diagram id="JmtXC3KNYKc-si2XV-58" name="Page-1">
    <mxGraphModel dx="1011" dy="681" grid="1" gridSize="10" guides="1" tooltips="1" connect="1" arrows="1" fold="1" page="1" pageScale="1" pageWidth="827" pageHeight="1169" math="0" shadow="0">
      <root>
        <mxCell id="0" />
        <mxCell id="1" parent="0" />
        <mxCell id="gwNynlul9ihLpbrJon8_-7" value="" style="points=[[0.13,0.02,0],[0.5,0,0],[0.87,0.02,0],[0.885,0.4,0],[0.985,0.985,0],[0.5,1,0],[0.015,0.985,0],[0.115,0.4,0]];verticalLabelPosition=bottom;html=1;verticalAlign=top;aspect=fixed;align=center;pointerEvents=1;shape=mxgraph.cisco19.laptop;fillColor=#005073;strokeColor=none;" vertex="1" parent="1">
          <mxGeometry x="20" y="200" width="50" height="35" as="geometry" />
        </mxCell>
        <mxCell id="gwNynlul9ihLpbrJon8_-8" value="" style="points=[[0.03,0.03,0],[0.5,0,0],[0.97,0.03,0],[1,0.4,0],[0.97,0.745,0],[0.5,1,0],[0.03,0.745,0],[0,0.4,0]];verticalLabelPosition=bottom;html=1;verticalAlign=top;aspect=fixed;align=center;pointerEvents=1;shape=mxgraph.cisco19.workstation;fillColor=#005073;strokeColor=none;" vertex="1" parent="1">
          <mxGeometry x="20" y="130" width="50" height="40" as="geometry" />
        </mxCell>
        <mxCell id="gwNynlul9ihLpbrJon8_-9" value="" style="points=[[0.015,0.015,0],[0.985,0.015,0],[0.985,0.985,0],[0.015,0.985,0],[0.25,0,0],[0.5,0,0],[0.75,0,0],[1,0.25,0],[1,0.5,0],[1,0.75,0],[0.75,1,0],[0.5,1,0],[0.25,1,0],[0,0.75,0],[0,0.5,0],[0,0.25,0]];verticalLabelPosition=bottom;html=1;verticalAlign=top;aspect=fixed;align=center;pointerEvents=1;shape=mxgraph.cisco19.handheld;fillColor=#005073;strokeColor=none;" vertex="1" parent="1">
          <mxGeometry x="26.25" y="50" width="37.5" height="50" as="geometry" />
        </mxCell>
        <mxCell id="gwNynlul9ihLpbrJon8_-11" value="" style="aspect=fixed;pointerEvents=1;shadow=0;dashed=0;html=1;strokeColor=none;labelPosition=center;verticalLabelPosition=bottom;verticalAlign=top;align=center;fillColor=#00188D;shape=mxgraph.azure.tablet;" vertex="1" parent="1">
          <mxGeometry x="20" y="270" width="50" height="37" as="geometry" />
        </mxCell>
        <mxCell id="gwNynlul9ihLpbrJon8_-13" value="" style="aspect=fixed;perimeter=ellipsePerimeter;html=1;align=center;shadow=0;dashed=0;spacingTop=3;image;image=img/lib/active_directory/internet_globe.svg;" vertex="1" parent="1">
          <mxGeometry x="180" y="100" width="50" height="50" as="geometry" />
        </mxCell>
        <mxCell id="gwNynlul9ihLpbrJon8_-15" value="" style="shape=image;html=1;verticalAlign=top;verticalLabelPosition=bottom;labelBackgroundColor=#ffffff;imageAspect=0;aspect=fixed;image=https://cdn4.iconfinder.com/data/icons/logos-brands-5/24/nginx-128.png" vertex="1" parent="1">
          <mxGeometry x="580" y="141" width="48" height="48" as="geometry" />
        </mxCell>
        <mxCell id="gwNynlul9ihLpbrJon8_-16" value="" style="outlineConnect=0;dashed=0;verticalLabelPosition=bottom;verticalAlign=top;align=center;html=1;shape=mxgraph.aws3.ec2;fillColor=#F58534;gradientColor=none;" vertex="1" parent="1">
          <mxGeometry x="650" y="143.5" width="36.5" height="43" as="geometry" />
        </mxCell>
        <mxCell id="gwNynlul9ihLpbrJon8_-17" value="" style="shape=image;html=1;verticalAlign=top;verticalLabelPosition=bottom;labelBackgroundColor=#ffffff;imageAspect=0;aspect=fixed;image=https://cdn4.iconfinder.com/data/icons/logos-3/512/mongodb-2-128.png" vertex="1" parent="1">
          <mxGeometry x="686.5" y="264.5" width="48" height="48" as="geometry" />
        </mxCell>
        <mxCell id="gwNynlul9ihLpbrJon8_-19" value="" style="aspect=fixed;html=1;points=[];align=center;image;fontSize=12;image=img/lib/mscae/Managed_Databases.svg;" vertex="1" parent="1">
          <mxGeometry x="639.5" y="263.5" width="47" height="50" as="geometry" />
        </mxCell>
        <mxCell id="gwNynlul9ihLpbrJon8_-20" value="" style="outlineConnect=0;dashed=0;verticalLabelPosition=bottom;verticalAlign=top;align=center;html=1;shape=mxgraph.aws3.s3;fillColor=#E05243;gradientColor=none;" vertex="1" parent="1">
          <mxGeometry x="460" y="269.5" width="36.5" height="43" as="geometry" />
        </mxCell>
        <mxCell id="gwNynlul9ihLpbrJon8_-21" value="" style="outlineConnect=0;fontColor=#232F3E;gradientColor=none;fillColor=#277116;strokeColor=none;dashed=0;verticalLabelPosition=bottom;verticalAlign=top;align=center;html=1;fontSize=12;fontStyle=0;aspect=fixed;pointerEvents=1;shape=mxgraph.aws4.bucket;" vertex="1" parent="1">
          <mxGeometry x="500" y="272.8" width="35" height="36.4" as="geometry" />
        </mxCell>
        <mxCell id="gwNynlul9ihLpbrJon8_-25" value="Cloud&#xa;CDN" style="html=1;fillColor=#5184F3;strokeColor=none;verticalAlign=top;labelPosition=center;verticalLabelPosition=bottom;align=center;spacingTop=-6;fontSize=11;fontStyle=1;fontColor=#999999;shape=mxgraph.gcp2.hexIcon;prIcon=cloud_cdn" vertex="1" parent="1">
          <mxGeometry x="172" y="170" width="66" height="58.5" as="geometry" />
        </mxCell>
        <mxCell id="gwNynlul9ihLpbrJon8_-26" value="Akamai" style="text;html=1;strokeColor=none;fillColor=none;align=center;verticalAlign=middle;whiteSpace=wrap;rounded=0;" vertex="1" parent="1">
          <mxGeometry x="185" y="257" width="40" height="20" as="geometry" />
        </mxCell>
      </root>
    </mxGraphModel>
  </diagram>
</mxfile>
